0
SECTION
2
HEADER
9
$INSUNITS
70
4
0
ENDSEC
0
SECTION
2
TABLES
0
TABLE
2
LTYPE
0
LTYPE
72
65
70
64
2
CONTINUOUS
3
______
73
0
40
0
0
ENDTAB
0
TABLE
2
LAYER
0
ENDTAB
0
ENDSEC
0
SECTION
2
ENTITIES
0
LINE
8
0
10
3.025
20
-2.525
11
16.025
21
-2.525
0
LINE
8
0
10
3.025
20
-16.525
11
16.025
21
-16.525
0
LINE
8
0
10
2.525
20
-3.025
11
2.525
21
-16.025
0
LINE
8
0
10
16.525
20
-3.025
11
16.525
21
-16.025
0
ARC
8
0
10
3.025
20
-3.025
40
0.5
50
90
51
180
0
ARC
8
0
10
16.025
20
-3.025
40
0.5
50
0
51
90
0
ARC
8
0
10
3.025
20
-16.025
40
0.5
50
180
51
270
0
ARC
8
0
10
16.025
20
-16.025
40
0.5
50
270
51
0
0
LINE
8
0
10
38.74375
20
-2.525
11
51.74375
21
-2.525
0
LINE
8
0
10
38.74375
20
-16.525
11
51.74375
21
-16.525
0
LINE
8
0
10
38.24375
20
-3.025
11
38.24375
21
-16.025
0
LINE
8
0
10
52.24375
20
-3.025
11
52.24375
21
-16.025
0
ARC
8
0
10
38.74375
20
-3.025
40
0.5
50
90
51
180
0
ARC
8
0
10
51.74375
20
-3.025
40
0.5
50
0
51
90
0
ARC
8
0
10
38.74375
20
-16.025
40
0.5
50
180
51
270
0
ARC
8
0
10
51.74375
20
-16.025
40
0.5
50
270
51
0
0
LINE
8
0
10
30.30575
20
-3.525
11
36.30575
21
-3.525
0
LINE
8
0
10
30.30575
20
-18.525
11
36.30575
21
-18.525
0
LINE
8
0
10
29.80575
20
-4.025
11
29.80575
21
-18.025
0
LINE
8
0
10
36.80575
20
-4.025
11
36.80575
21
-18.025
0
ARC
8
0
10
30.30575
20
-4.025
40
0.5
50
90
51
180
0
ARC
8
0
10
36.30575
20
-4.025
40
0.5
50
0
51
90
0
ARC
8
0
10
30.30575
20
-18.025
40
0.5
50
180
51
270
0
ARC
8
0
10
36.30575
20
-18.025
40
0.5
50
270
51
0
0
LINE
8
0
10
54.18175
20
-3.525
11
60.18175
21
-3.525
0
LINE
8
0
10
54.18175
20
-18.525
11
60.18175
21
-18.525
0
LINE
8
0
10
53.68175
20
-4.025
11
53.68175
21
-18.025
0
LINE
8
0
10
60.68175
20
-4.025
11
60.68175
21
-18.025
0
ARC
8
0
10
54.18175
20
-4.025
40
0.5
50
90
51
180
0
ARC
8
0
10
60.18175
20
-4.025
40
0.5
50
0
51
90
0
ARC
8
0
10
54.18175
20
-18.025
40
0.5
50
180
51
270
0
ARC
8
0
10
60.18175
20
-18.025
40
0.5
50
270
51
0
0
LINE
8
0
10
74.4625
20
-2.525
11
87.4625
21
-2.525
0
LINE
8
0
10
74.4625
20
-16.525
11
87.4625
21
-16.525
0
LINE
8
0
10
73.9625
20
-3.025
11
73.9625
21
-16.025
0
LINE
8
0
10
87.9625
20
-3.025
11
87.9625
21
-16.025
0
ARC
8
0
10
74.4625
20
-3.025
40
0.5
50
90
51
180
0
ARC
8
0
10
87.4625
20
-3.025
40
0.5
50
0
51
90
0
ARC
8
0
10
74.4625
20
-16.025
40
0.5
50
180
51
270
0
ARC
8
0
10
87.4625
20
-16.025
40
0.5
50
270
51
0
0
LINE
8
0
10
93.5125
20
-2.525
11
106.5125
21
-2.525
0
LINE
8
0
10
93.5125
20
-16.525
11
106.5125
21
-16.525
0
LINE
8
0
10
93.0125
20
-3.025
11
93.0125
21
-16.025
0
LINE
8
0
10
107.0125
20
-3.025
11
107.0125
21
-16.025
0
ARC
8
0
10
93.5125
20
-3.025
40
0.5
50
90
51
180
0
ARC
8
0
10
106.5125
20
-3.025
40
0.5
50
0
51
90
0
ARC
8
0
10
93.5125
20
-16.025
40
0.5
50
180
51
270
0
ARC
8
0
10
106.5125
20
-16.025
40
0.5
50
270
51
0
0
LINE
8
0
10
112.5625
20
-2.525
11
125.5625
21
-2.525
0
LINE
8
0
10
112.5625
20
-16.525
11
125.5625
21
-16.525
0
LINE
8
0
10
112.0625
20
-3.025
11
112.0625
21
-16.025
0
LINE
8
0
10
126.0625
20
-3.025
11
126.0625
21
-16.025
0
ARC
8
0
10
112.5625
20
-3.025
40
0.5
50
90
51
180
0
ARC
8
0
10
125.5625
20
-3.025
40
0.5
50
0
51
90
0
ARC
8
0
10
112.5625
20
-16.025
40
0.5
50
180
51
270
0
ARC
8
0
10
125.5625
20
-16.025
40
0.5
50
270
51
0
0
LINE
8
0
10
131.6125
20
-2.525
11
144.6125
21
-2.525
0
LINE
8
0
10
131.6125
20
-16.525
11
144.6125
21
-16.525
0
LINE
8
0
10
131.1125
20
-3.025
11
131.1125
21
-16.025
0
LINE
8
0
10
145.1125
20
-3.025
11
145.1125
21
-16.025
0
ARC
8
0
10
131.6125
20
-3.025
40
0.5
50
90
51
180
0
ARC
8
0
10
144.6125
20
-3.025
40
0.5
50
0
51
90
0
ARC
8
0
10
131.6125
20
-16.025
40
0.5
50
180
51
270
0
ARC
8
0
10
144.6125
20
-16.025
40
0.5
50
270
51
0
0
LINE
8
0
10
155.425
20
-2.525
11
168.425
21
-2.525
0
LINE
8
0
10
155.425
20
-16.525
11
168.425
21
-16.525
0
LINE
8
0
10
154.925
20
-3.025
11
154.925
21
-16.025
0
LINE
8
0
10
168.925
20
-3.025
11
168.925
21
-16.025
0
ARC
8
0
10
155.425
20
-3.025
40
0.5
50
90
51
180
0
ARC
8
0
10
168.425
20
-3.025
40
0.5
50
0
51
90
0
ARC
8
0
10
155.425
20
-16.025
40
0.5
50
180
51
270
0
ARC
8
0
10
168.425
20
-16.025
40
0.5
50
270
51
0
0
LINE
8
0
10
174.475
20
-2.525
11
187.475
21
-2.525
0
LINE
8
0
10
174.475
20
-16.525
11
187.475
21
-16.525
0
LINE
8
0
10
173.975
20
-3.025
11
173.975
21
-16.025
0
LINE
8
0
10
187.975
20
-3.025
11
187.975
21
-16.025
0
ARC
8
0
10
174.475
20
-3.025
40
0.5
50
90
51
180
0
ARC
8
0
10
187.475
20
-3.025
40
0.5
50
0
51
90
0
ARC
8
0
10
174.475
20
-16.025
40
0.5
50
180
51
270
0
ARC
8
0
10
187.475
20
-16.025
40
0.5
50
270
51
0
0
LINE
8
0
10
193.525
20
-2.525
11
206.525
21
-2.525
0
LINE
8
0
10
193.525
20
-16.525
11
206.525
21
-16.525
0
LINE
8
0
10
193.025
20
-3.025
11
193.025
21
-16.025
0
LINE
8
0
10
207.025
20
-3.025
11
207.025
21
-16.025
0
ARC
8
0
10
193.525
20
-3.025
40
0.5
50
90
51
180
0
ARC
8
0
10
206.525
20
-3.025
40
0.5
50
0
51
90
0
ARC
8
0
10
193.525
20
-16.025
40
0.5
50
180
51
270
0
ARC
8
0
10
206.525
20
-16.025
40
0.5
50
270
51
0
0
LINE
8
0
10
212.575
20
-2.525
11
225.575
21
-2.525
0
LINE
8
0
10
212.575
20
-16.525
11
225.575
21
-16.525
0
LINE
8
0
10
212.075
20
-3.025
11
212.075
21
-16.025
0
LINE
8
0
10
226.075
20
-3.025
11
226.075
21
-16.025
0
ARC
8
0
10
212.575
20
-3.025
40
0.5
50
90
51
180
0
ARC
8
0
10
225.575
20
-3.025
40
0.5
50
0
51
90
0
ARC
8
0
10
212.575
20
-16.025
40
0.5
50
180
51
270
0
ARC
8
0
10
225.575
20
-16.025
40
0.5
50
270
51
0
0
LINE
8
0
10
236.3875
20
-2.525
11
249.3875
21
-2.525
0
LINE
8
0
10
236.3875
20
-16.525
11
249.3875
21
-16.525
0
LINE
8
0
10
235.8875
20
-3.025
11
235.8875
21
-16.025
0
LINE
8
0
10
249.8875
20
-3.025
11
249.8875
21
-16.025
0
ARC
8
0
10
236.3875
20
-3.025
40
0.5
50
90
51
180
0
ARC
8
0
10
249.3875
20
-3.025
40
0.5
50
0
51
90
0
ARC
8
0
10
236.3875
20
-16.025
40
0.5
50
180
51
270
0
ARC
8
0
10
249.3875
20
-16.025
40
0.5
50
270
51
0
0
LINE
8
0
10
255.4375
20
-2.525
11
268.4375
21
-2.525
0
LINE
8
0
10
255.4375
20
-16.525
11
268.4375
21
-16.525
0
LINE
8
0
10
254.9375
20
-3.025
11
254.9375
21
-16.025
0
LINE
8
0
10
268.9375
20
-3.025
11
268.9375
21
-16.025
0
ARC
8
0
10
255.4375
20
-3.025
40
0.5
50
90
51
180
0
ARC
8
0
10
268.4375
20
-3.025
40
0.5
50
0
51
90
0
ARC
8
0
10
255.4375
20
-16.025
40
0.5
50
180
51
270
0
ARC
8
0
10
268.4375
20
-16.025
40
0.5
50
270
51
0
0
LINE
8
0
10
274.4875
20
-2.525
11
287.4875
21
-2.525
0
LINE
8
0
10
274.4875
20
-16.525
11
287.4875
21
-16.525
0
LINE
8
0
10
273.9875
20
-3.025
11
273.9875
21
-16.025
0
LINE
8
0
10
287.9875
20
-3.025
11
287.9875
21
-16.025
0
ARC
8
0
10
274.4875
20
-3.025
40
0.5
50
90
51
180
0
ARC
8
0
10
287.4875
20
-3.025
40
0.5
50
0
51
90
0
ARC
8
0
10
274.4875
20
-16.025
40
0.5
50
180
51
270
0
ARC
8
0
10
287.4875
20
-16.025
40
0.5
50
270
51
0
0
LINE
8
0
10
293.5375
20
-2.525
11
306.5375
21
-2.525
0
LINE
8
0
10
293.5375
20
-16.525
11
306.5375
21
-16.525
0
LINE
8
0
10
293.0375
20
-3.025
11
293.0375
21
-16.025
0
LINE
8
0
10
307.0375
20
-3.025
11
307.0375
21
-16.025
0
ARC
8
0
10
293.5375
20
-3.025
40
0.5
50
90
51
180
0
ARC
8
0
10
306.5375
20
-3.025
40
0.5
50
0
51
90
0
ARC
8
0
10
293.5375
20
-16.025
40
0.5
50
180
51
270
0
ARC
8
0
10
306.5375
20
-16.025
40
0.5
50
270
51
0
0
LINE
8
0
10
317.35
20
-2.525
11
330.35
21
-2.525
0
LINE
8
0
10
317.35
20
-16.525
11
330.35
21
-16.525
0
LINE
8
0
10
316.85
20
-3.025
11
316.85
21
-16.025
0
LINE
8
0
10
330.85
20
-3.025
11
330.85
21
-16.025
0
ARC
8
0
10
317.35
20
-3.025
40
0.5
50
90
51
180
0
ARC
8
0
10
330.35
20
-3.025
40
0.5
50
0
51
90
0
ARC
8
0
10
317.35
20
-16.025
40
0.5
50
180
51
270
0
ARC
8
0
10
330.35
20
-16.025
40
0.5
50
270
51
0
0
LINE
8
0
10
3.025
20
-31.1
11
16.025
21
-31.1
0
LINE
8
0
10
3.025
20
-45.1
11
16.025
21
-45.1
0
LINE
8
0
10
2.525
20
-31.6
11
2.525
21
-44.6
0
LINE
8
0
10
16.525
20
-31.6
11
16.525
21
-44.6
0
ARC
8
0
10
3.025
20
-31.6
40
0.5
50
90
51
180
0
ARC
8
0
10
16.025
20
-31.6
40
0.5
50
0
51
90
0
ARC
8
0
10
3.025
20
-44.6
40
0.5
50
180
51
270
0
ARC
8
0
10
16.025
20
-44.6
40
0.5
50
270
51
0
0
LINE
8
0
10
26.8375
20
-31.1
11
39.8375
21
-31.1
0
LINE
8
0
10
26.8375
20
-45.1
11
39.8375
21
-45.1
0
LINE
8
0
10
26.3375
20
-31.6
11
26.3375
21
-44.6
0
LINE
8
0
10
40.3375
20
-31.6
11
40.3375
21
-44.6
0
ARC
8
0
10
26.8375
20
-31.6
40
0.5
50
90
51
180
0
ARC
8
0
10
39.8375
20
-31.6
40
0.5
50
0
51
90
0
ARC
8
0
10
26.8375
20
-44.6
40
0.5
50
180
51
270
0
ARC
8
0
10
39.8375
20
-44.6
40
0.5
50
270
51
0
0
LINE
8
0
10
45.8875
20
-31.1
11
58.8875
21
-31.1
0
LINE
8
0
10
45.8875
20
-45.1
11
58.8875
21
-45.1
0
LINE
8
0
10
45.3875
20
-31.6
11
45.3875
21
-44.6
0
LINE
8
0
10
59.3875
20
-31.6
11
59.3875
21
-44.6
0
ARC
8
0
10
45.8875
20
-31.6
40
0.5
50
90
51
180
0
ARC
8
0
10
58.8875
20
-31.6
40
0.5
50
0
51
90
0
ARC
8
0
10
45.8875
20
-44.6
40
0.5
50
180
51
270
0
ARC
8
0
10
58.8875
20
-44.6
40
0.5
50
270
51
0
0
LINE
8
0
10
64.9375
20
-31.1
11
77.9375
21
-31.1
0
LINE
8
0
10
64.9375
20
-45.1
11
77.9375
21
-45.1
0
LINE
8
0
10
64.4375
20
-31.6
11
64.4375
21
-44.6
0
LINE
8
0
10
78.4375
20
-31.6
11
78.4375
21
-44.6
0
ARC
8
0
10
64.9375
20
-31.6
40
0.5
50
90
51
180
0
ARC
8
0
10
77.9375
20
-31.6
40
0.5
50
0
51
90
0
ARC
8
0
10
64.9375
20
-44.6
40
0.5
50
180
51
270
0
ARC
8
0
10
77.9375
20
-44.6
40
0.5
50
270
51
0
0
LINE
8
0
10
83.9875
20
-31.1
11
96.9875
21
-31.1
0
LINE
8
0
10
83.9875
20
-45.1
11
96.9875
21
-45.1
0
LINE
8
0
10
83.4875
20
-31.6
11
83.4875
21
-44.6
0
LINE
8
0
10
97.4875
20
-31.6
11
97.4875
21
-44.6
0
ARC
8
0
10
83.9875
20
-31.6
40
0.5
50
90
51
180
0
ARC
8
0
10
96.9875
20
-31.6
40
0.5
50
0
51
90
0
ARC
8
0
10
83.9875
20
-44.6
40
0.5
50
180
51
270
0
ARC
8
0
10
96.9875
20
-44.6
40
0.5
50
270
51
0
0
LINE
8
0
10
103.0375
20
-31.1
11
116.0375
21
-31.1
0
LINE
8
0
10
103.0375
20
-45.1
11
116.0375
21
-45.1
0
LINE
8
0
10
102.5375
20
-31.6
11
102.5375
21
-44.6
0
LINE
8
0
10
116.5375
20
-31.6
11
116.5375
21
-44.6
0
ARC
8
0
10
103.0375
20
-31.6
40
0.5
50
90
51
180
0
ARC
8
0
10
116.0375
20
-31.6
40
0.5
50
0
51
90
0
ARC
8
0
10
103.0375
20
-44.6
40
0.5
50
180
51
270
0
ARC
8
0
10
116.0375
20
-44.6
40
0.5
50
270
51
0
0
LINE
8
0
10
122.0875
20
-31.1
11
135.0875
21
-31.1
0
LINE
8
0
10
122.0875
20
-45.1
11
135.0875
21
-45.1
0
LINE
8
0
10
121.5875
20
-31.6
11
121.5875
21
-44.6
0
LINE
8
0
10
135.5875
20
-31.6
11
135.5875
21
-44.6
0
ARC
8
0
10
122.0875
20
-31.6
40
0.5
50
90
51
180
0
ARC
8
0
10
135.0875
20
-31.6
40
0.5
50
0
51
90
0
ARC
8
0
10
122.0875
20
-44.6
40
0.5
50
180
51
270
0
ARC
8
0
10
135.0875
20
-44.6
40
0.5
50
270
51
0
0
LINE
8
0
10
141.1375
20
-31.1
11
154.1375
21
-31.1
0
LINE
8
0
10
141.1375
20
-45.1
11
154.1375
21
-45.1
0
LINE
8
0
10
140.6375
20
-31.6
11
140.6375
21
-44.6
0
LINE
8
0
10
154.6375
20
-31.6
11
154.6375
21
-44.6
0
ARC
8
0
10
141.1375
20
-31.6
40
0.5
50
90
51
180
0
ARC
8
0
10
154.1375
20
-31.6
40
0.5
50
0
51
90
0
ARC
8
0
10
141.1375
20
-44.6
40
0.5
50
180
51
270
0
ARC
8
0
10
154.1375
20
-44.6
40
0.5
50
270
51
0
0
LINE
8
0
10
160.1875
20
-31.1
11
173.1875
21
-31.1
0
LINE
8
0
10
160.1875
20
-45.1
11
173.1875
21
-45.1
0
LINE
8
0
10
159.6875
20
-31.6
11
159.6875
21
-44.6
0
LINE
8
0
10
173.6875
20
-31.6
11
173.6875
21
-44.6
0
ARC
8
0
10
160.1875
20
-31.6
40
0.5
50
90
51
180
0
ARC
8
0
10
173.1875
20
-31.6
40
0.5
50
0
51
90
0
ARC
8
0
10
160.1875
20
-44.6
40
0.5
50
180
51
270
0
ARC
8
0
10
173.1875
20
-44.6
40
0.5
50
270
51
0
0
LINE
8
0
10
179.2375
20
-31.1
11
192.2375
21
-31.1
0
LINE
8
0
10
179.2375
20
-45.1
11
192.2375
21
-45.1
0
LINE
8
0
10
178.7375
20
-31.6
11
178.7375
21
-44.6
0
LINE
8
0
10
192.7375
20
-31.6
11
192.7375
21
-44.6
0
ARC
8
0
10
179.2375
20
-31.6
40
0.5
50
90
51
180
0
ARC
8
0
10
192.2375
20
-31.6
40
0.5
50
0
51
90
0
ARC
8
0
10
179.2375
20
-44.6
40
0.5
50
180
51
270
0
ARC
8
0
10
192.2375
20
-44.6
40
0.5
50
270
51
0
0
LINE
8
0
10
198.2875
20
-31.1
11
211.2875
21
-31.1
0
LINE
8
0
10
198.2875
20
-45.1
11
211.2875
21
-45.1
0
LINE
8
0
10
197.7875
20
-31.6
11
197.7875
21
-44.6
0
LINE
8
0
10
211.7875
20
-31.6
11
211.7875
21
-44.6
0
ARC
8
0
10
198.2875
20
-31.6
40
0.5
50
90
51
180
0
ARC
8
0
10
211.2875
20
-31.6
40
0.5
50
0
51
90
0
ARC
8
0
10
198.2875
20
-44.6
40
0.5
50
180
51
270
0
ARC
8
0
10
211.2875
20
-44.6
40
0.5
50
270
51
0
0
LINE
8
0
10
217.3375
20
-31.1
11
230.3375
21
-31.1
0
LINE
8
0
10
217.3375
20
-45.1
11
230.3375
21
-45.1
0
LINE
8
0
10
216.8375
20
-31.6
11
216.8375
21
-44.6
0
LINE
8
0
10
230.8375
20
-31.6
11
230.8375
21
-44.6
0
ARC
8
0
10
217.3375
20
-31.6
40
0.5
50
90
51
180
0
ARC
8
0
10
230.3375
20
-31.6
40
0.5
50
0
51
90
0
ARC
8
0
10
217.3375
20
-44.6
40
0.5
50
180
51
270
0
ARC
8
0
10
230.3375
20
-44.6
40
0.5
50
270
51
0
0
LINE
8
0
10
236.3875
20
-31.1
11
249.3875
21
-31.1
0
LINE
8
0
10
236.3875
20
-45.1
11
249.3875
21
-45.1
0
LINE
8
0
10
235.8875
20
-31.6
11
235.8875
21
-44.6
0
LINE
8
0
10
249.8875
20
-31.6
11
249.8875
21
-44.6
0
ARC
8
0
10
236.3875
20
-31.6
40
0.5
50
90
51
180
0
ARC
8
0
10
249.3875
20
-31.6
40
0.5
50
0
51
90
0
ARC
8
0
10
236.3875
20
-44.6
40
0.5
50
180
51
270
0
ARC
8
0
10
249.3875
20
-44.6
40
0.5
50
270
51
0
0
LINE
8
0
10
255.4375
20
-31.1
11
268.4375
21
-31.1
0
LINE
8
0
10
255.4375
20
-45.1
11
268.4375
21
-45.1
0
LINE
8
0
10
254.9375
20
-31.6
11
254.9375
21
-44.6
0
LINE
8
0
10
268.9375
20
-31.6
11
268.9375
21
-44.6
0
ARC
8
0
10
255.4375
20
-31.6
40
0.5
50
90
51
180
0
ARC
8
0
10
268.4375
20
-31.6
40
0.5
50
0
51
90
0
ARC
8
0
10
255.4375
20
-44.6
40
0.5
50
180
51
270
0
ARC
8
0
10
268.4375
20
-44.6
40
0.5
50
270
51
0
0
LINE
8
0
10
284.0125
20
-31.1
11
297.0125
21
-31.1
0
LINE
8
0
10
284.0125
20
-45.1
11
297.0125
21
-45.1
0
LINE
8
0
10
283.5125
20
-31.6
11
283.5125
21
-44.6
0
LINE
8
0
10
297.5125
20
-31.6
11
297.5125
21
-44.6
0
ARC
8
0
10
284.0125
20
-31.6
40
0.5
50
90
51
180
0
ARC
8
0
10
297.0125
20
-31.6
40
0.5
50
0
51
90
0
ARC
8
0
10
284.0125
20
-44.6
40
0.5
50
180
51
270
0
ARC
8
0
10
297.0125
20
-44.6
40
0.5
50
270
51
0
0
LINE
8
0
10
275.5745
20
-32.1
11
281.5745
21
-32.1
0
LINE
8
0
10
275.5745
20
-47.1
11
281.5745
21
-47.1
0
LINE
8
0
10
275.0745
20
-32.6
11
275.0745
21
-46.6
0
LINE
8
0
10
282.0745
20
-32.6
11
282.0745
21
-46.6
0
ARC
8
0
10
275.5745
20
-32.6
40
0.5
50
90
51
180
0
ARC
8
0
10
281.5745
20
-32.6
40
0.5
50
0
51
90
0
ARC
8
0
10
275.5745
20
-46.6
40
0.5
50
180
51
270
0
ARC
8
0
10
281.5745
20
-46.6
40
0.5
50
270
51
0
0
LINE
8
0
10
299.4505
20
-32.1
11
305.4505
21
-32.1
0
LINE
8
0
10
299.4505
20
-47.1
11
305.4505
21
-47.1
0
LINE
8
0
10
298.9505
20
-32.6
11
298.9505
21
-46.6
0
LINE
8
0
10
305.9505
20
-32.6
11
305.9505
21
-46.6
0
ARC
8
0
10
299.4505
20
-32.6
40
0.5
50
90
51
180
0
ARC
8
0
10
305.4505
20
-32.6
40
0.5
50
0
51
90
0
ARC
8
0
10
299.4505
20
-46.6
40
0.5
50
180
51
270
0
ARC
8
0
10
305.4505
20
-46.6
40
0.5
50
270
51
0
0
LINE
8
0
10
274.4875
20
-31.1
11
287.4875
21
-31.1
0
LINE
8
0
10
274.4875
20
-45.1
11
287.4875
21
-45.1
0
LINE
8
0
10
273.9875
20
-31.6
11
273.9875
21
-44.6
0
LINE
8
0
10
287.9875
20
-31.6
11
287.9875
21
-44.6
0
ARC
8
0
10
274.4875
20
-31.6
40
0.5
50
90
51
180
0
ARC
8
0
10
287.4875
20
-31.6
40
0.5
50
0
51
90
0
ARC
8
0
10
274.4875
20
-44.6
40
0.5
50
180
51
270
0
ARC
8
0
10
287.4875
20
-44.6
40
0.5
50
270
51
0
0
LINE
8
0
10
293.5375
20
-31.1
11
306.5375
21
-31.1
0
LINE
8
0
10
293.5375
20
-45.1
11
306.5375
21
-45.1
0
LINE
8
0
10
293.0375
20
-31.6
11
293.0375
21
-44.6
0
LINE
8
0
10
307.0375
20
-31.6
11
307.0375
21
-44.6
0
ARC
8
0
10
293.5375
20
-31.6
40
0.5
50
90
51
180
0
ARC
8
0
10
306.5375
20
-31.6
40
0.5
50
0
51
90
0
ARC
8
0
10
293.5375
20
-44.6
40
0.5
50
180
51
270
0
ARC
8
0
10
306.5375
20
-44.6
40
0.5
50
270
51
0
0
LINE
8
0
10
317.35
20
-31.1
11
330.35
21
-31.1
0
LINE
8
0
10
317.35
20
-45.1
11
330.35
21
-45.1
0
LINE
8
0
10
316.85
20
-31.6
11
316.85
21
-44.6
0
LINE
8
0
10
330.85
20
-31.6
11
330.85
21
-44.6
0
ARC
8
0
10
317.35
20
-31.6
40
0.5
50
90
51
180
0
ARC
8
0
10
330.35
20
-31.6
40
0.5
50
0
51
90
0
ARC
8
0
10
317.35
20
-44.6
40
0.5
50
180
51
270
0
ARC
8
0
10
330.35
20
-44.6
40
0.5
50
270
51
0
0
LINE
8
0
10
3.025
20
-50.15
11
16.025
21
-50.15
0
LINE
8
0
10
3.025
20
-64.15
11
16.025
21
-64.15
0
LINE
8
0
10
2.525
20
-50.65
11
2.525
21
-63.65
0
LINE
8
0
10
16.525
20
-50.65
11
16.525
21
-63.65
0
ARC
8
0
10
3.025
20
-50.65
40
0.5
50
90
51
180
0
ARC
8
0
10
16.025
20
-50.65
40
0.5
50
0
51
90
0
ARC
8
0
10
3.025
20
-63.65
40
0.5
50
180
51
270
0
ARC
8
0
10
16.025
20
-63.65
40
0.5
50
270
51
0
0
LINE
8
0
10
31.6
20
-50.15
11
44.6
21
-50.15
0
LINE
8
0
10
31.6
20
-64.15
11
44.6
21
-64.15
0
LINE
8
0
10
31.1
20
-50.65
11
31.1
21
-63.65
0
LINE
8
0
10
45.1
20
-50.65
11
45.1
21
-63.65
0
ARC
8
0
10
31.6
20
-50.65
40
0.5
50
90
51
180
0
ARC
8
0
10
44.6
20
-50.65
40
0.5
50
0
51
90
0
ARC
8
0
10
31.6
20
-63.65
40
0.5
50
180
51
270
0
ARC
8
0
10
44.6
20
-63.65
40
0.5
50
270
51
0
0
LINE
8
0
10
55.4125
20
-50.15
11
68.4125
21
-50.15
0
LINE
8
0
10
55.4125
20
-64.15
11
68.4125
21
-64.15
0
LINE
8
0
10
54.9125
20
-50.65
11
54.9125
21
-63.65
0
LINE
8
0
10
68.9125
20
-50.65
11
68.9125
21
-63.65
0
ARC
8
0
10
55.4125
20
-50.65
40
0.5
50
90
51
180
0
ARC
8
0
10
68.4125
20
-50.65
40
0.5
50
0
51
90
0
ARC
8
0
10
55.4125
20
-63.65
40
0.5
50
180
51
270
0
ARC
8
0
10
68.4125
20
-63.65
40
0.5
50
270
51
0
0
LINE
8
0
10
74.4625
20
-50.15
11
87.4625
21
-50.15
0
LINE
8
0
10
74.4625
20
-64.15
11
87.4625
21
-64.15
0
LINE
8
0
10
73.9625
20
-50.65
11
73.9625
21
-63.65
0
LINE
8
0
10
87.9625
20
-50.65
11
87.9625
21
-63.65
0
ARC
8
0
10
74.4625
20
-50.65
40
0.5
50
90
51
180
0
ARC
8
0
10
87.4625
20
-50.65
40
0.5
50
0
51
90
0
ARC
8
0
10
74.4625
20
-63.65
40
0.5
50
180
51
270
0
ARC
8
0
10
87.4625
20
-63.65
40
0.5
50
270
51
0
0
LINE
8
0
10
93.5125
20
-50.15
11
106.5125
21
-50.15
0
LINE
8
0
10
93.5125
20
-64.15
11
106.5125
21
-64.15
0
LINE
8
0
10
93.0125
20
-50.65
11
93.0125
21
-63.65
0
LINE
8
0
10
107.0125
20
-50.65
11
107.0125
21
-63.65
0
ARC
8
0
10
93.5125
20
-50.65
40
0.5
50
90
51
180
0
ARC
8
0
10
106.5125
20
-50.65
40
0.5
50
0
51
90
0
ARC
8
0
10
93.5125
20
-63.65
40
0.5
50
180
51
270
0
ARC
8
0
10
106.5125
20
-63.65
40
0.5
50
270
51
0
0
LINE
8
0
10
112.5625
20
-50.15
11
125.5625
21
-50.15
0
LINE
8
0
10
112.5625
20
-64.15
11
125.5625
21
-64.15
0
LINE
8
0
10
112.0625
20
-50.65
11
112.0625
21
-63.65
0
LINE
8
0
10
126.0625
20
-50.65
11
126.0625
21
-63.65
0
ARC
8
0
10
112.5625
20
-50.65
40
0.5
50
90
51
180
0
ARC
8
0
10
125.5625
20
-50.65
40
0.5
50
0
51
90
0
ARC
8
0
10
112.5625
20
-63.65
40
0.5
50
180
51
270
0
ARC
8
0
10
125.5625
20
-63.65
40
0.5
50
270
51
0
0
LINE
8
0
10
131.6125
20
-50.15
11
144.6125
21
-50.15
0
LINE
8
0
10
131.6125
20
-64.15
11
144.6125
21
-64.15
0
LINE
8
0
10
131.1125
20
-50.65
11
131.1125
21
-63.65
0
LINE
8
0
10
145.1125
20
-50.65
11
145.1125
21
-63.65
0
ARC
8
0
10
131.6125
20
-50.65
40
0.5
50
90
51
180
0
ARC
8
0
10
144.6125
20
-50.65
40
0.5
50
0
51
90
0
ARC
8
0
10
131.6125
20
-63.65
40
0.5
50
180
51
270
0
ARC
8
0
10
144.6125
20
-63.65
40
0.5
50
270
51
0
0
LINE
8
0
10
150.6625
20
-50.15
11
163.6625
21
-50.15
0
LINE
8
0
10
150.6625
20
-64.15
11
163.6625
21
-64.15
0
LINE
8
0
10
150.1625
20
-50.65
11
150.1625
21
-63.65
0
LINE
8
0
10
164.1625
20
-50.65
11
164.1625
21
-63.65
0
ARC
8
0
10
150.6625
20
-50.65
40
0.5
50
90
51
180
0
ARC
8
0
10
163.6625
20
-50.65
40
0.5
50
0
51
90
0
ARC
8
0
10
150.6625
20
-63.65
40
0.5
50
180
51
270
0
ARC
8
0
10
163.6625
20
-63.65
40
0.5
50
270
51
0
0
LINE
8
0
10
169.7125
20
-50.15
11
182.7125
21
-50.15
0
LINE
8
0
10
169.7125
20
-64.15
11
182.7125
21
-64.15
0
LINE
8
0
10
169.2125
20
-50.65
11
169.2125
21
-63.65
0
LINE
8
0
10
183.2125
20
-50.65
11
183.2125
21
-63.65
0
ARC
8
0
10
169.7125
20
-50.65
40
0.5
50
90
51
180
0
ARC
8
0
10
182.7125
20
-50.65
40
0.5
50
0
51
90
0
ARC
8
0
10
169.7125
20
-63.65
40
0.5
50
180
51
270
0
ARC
8
0
10
182.7125
20
-63.65
40
0.5
50
270
51
0
0
LINE
8
0
10
188.7625
20
-50.15
11
201.7625
21
-50.15
0
LINE
8
0
10
188.7625
20
-64.15
11
201.7625
21
-64.15
0
LINE
8
0
10
188.2625
20
-50.65
11
188.2625
21
-63.65
0
LINE
8
0
10
202.2625
20
-50.65
11
202.2625
21
-63.65
0
ARC
8
0
10
188.7625
20
-50.65
40
0.5
50
90
51
180
0
ARC
8
0
10
201.7625
20
-50.65
40
0.5
50
0
51
90
0
ARC
8
0
10
188.7625
20
-63.65
40
0.5
50
180
51
270
0
ARC
8
0
10
201.7625
20
-63.65
40
0.5
50
270
51
0
0
LINE
8
0
10
207.8125
20
-50.15
11
220.8125
21
-50.15
0
LINE
8
0
10
207.8125
20
-64.15
11
220.8125
21
-64.15
0
LINE
8
0
10
207.3125
20
-50.65
11
207.3125
21
-63.65
0
LINE
8
0
10
221.3125
20
-50.65
11
221.3125
21
-63.65
0
ARC
8
0
10
207.8125
20
-50.65
40
0.5
50
90
51
180
0
ARC
8
0
10
220.8125
20
-50.65
40
0.5
50
0
51
90
0
ARC
8
0
10
207.8125
20
-63.65
40
0.5
50
180
51
270
0
ARC
8
0
10
220.8125
20
-63.65
40
0.5
50
270
51
0
0
LINE
8
0
10
226.8625
20
-50.15
11
239.8625
21
-50.15
0
LINE
8
0
10
226.8625
20
-64.15
11
239.8625
21
-64.15
0
LINE
8
0
10
226.3625
20
-50.65
11
226.3625
21
-63.65
0
LINE
8
0
10
240.3625
20
-50.65
11
240.3625
21
-63.65
0
ARC
8
0
10
226.8625
20
-50.65
40
0.5
50
90
51
180
0
ARC
8
0
10
239.8625
20
-50.65
40
0.5
50
0
51
90
0
ARC
8
0
10
226.8625
20
-63.65
40
0.5
50
180
51
270
0
ARC
8
0
10
239.8625
20
-63.65
40
0.5
50
270
51
0
0
LINE
8
0
10
245.9125
20
-50.15
11
258.9125
21
-50.15
0
LINE
8
0
10
245.9125
20
-64.15
11
258.9125
21
-64.15
0
LINE
8
0
10
245.4125
20
-50.65
11
245.4125
21
-63.65
0
LINE
8
0
10
259.4125
20
-50.65
11
259.4125
21
-63.65
0
ARC
8
0
10
245.9125
20
-50.65
40
0.5
50
90
51
180
0
ARC
8
0
10
258.9125
20
-50.65
40
0.5
50
0
51
90
0
ARC
8
0
10
245.9125
20
-63.65
40
0.5
50
180
51
270
0
ARC
8
0
10
258.9125
20
-63.65
40
0.5
50
270
51
0
0
LINE
8
0
10
264.9625
20
-50.15
11
277.9625
21
-50.15
0
LINE
8
0
10
264.9625
20
-64.15
11
277.9625
21
-64.15
0
LINE
8
0
10
264.4625
20
-50.65
11
264.4625
21
-63.65
0
LINE
8
0
10
278.4625
20
-50.65
11
278.4625
21
-63.65
0
ARC
8
0
10
264.9625
20
-50.65
40
0.5
50
90
51
180
0
ARC
8
0
10
277.9625
20
-50.65
40
0.5
50
0
51
90
0
ARC
8
0
10
264.9625
20
-63.65
40
0.5
50
180
51
270
0
ARC
8
0
10
277.9625
20
-63.65
40
0.5
50
270
51
0
0
LINE
8
0
10
288.775
20
-50.15
11
301.775
21
-50.15
0
LINE
8
0
10
288.775
20
-64.15
11
301.775
21
-64.15
0
LINE
8
0
10
288.275
20
-50.65
11
288.275
21
-63.65
0
LINE
8
0
10
302.275
20
-50.65
11
302.275
21
-63.65
0
ARC
8
0
10
288.775
20
-50.65
40
0.5
50
90
51
180
0
ARC
8
0
10
301.775
20
-50.65
40
0.5
50
0
51
90
0
ARC
8
0
10
288.775
20
-63.65
40
0.5
50
180
51
270
0
ARC
8
0
10
301.775
20
-63.65
40
0.5
50
270
51
0
0
LINE
8
0
10
304.65625
20
-60.175
11
304.65625
21
-73.175
0
LINE
8
0
10
290.65625
20
-60.175
11
290.65625
21
-73.175
0
LINE
8
0
10
304.15625
20
-59.675
11
291.15625
21
-59.675
0
LINE
8
0
10
304.15625
20
-73.675
11
291.15625
21
-73.675
0
ARC
8
0
10
304.15625
20
-60.175
40
0.5
50
0
51
90
0
ARC
8
0
10
304.15625
20
-73.175
40
0.5
50
270
51
0
0
ARC
8
0
10
291.15625
20
-60.175
40
0.5
50
90
51
180
0
ARC
8
0
10
291.15625
20
-73.175
40
0.5
50
180
51
270
0
LINE
8
0
10
303.65625
20
-51.737
11
303.65625
21
-57.737
0
LINE
8
0
10
288.65625
20
-51.737
11
288.65625
21
-57.737
0
LINE
8
0
10
303.15625
20
-51.237
11
289.15625
21
-51.237
0
LINE
8
0
10
303.15625
20
-58.237
11
289.15625
21
-58.237
0
ARC
8
0
10
303.15625
20
-51.737
40
0.5
50
0
51
90
0
ARC
8
0
10
303.15625
20
-57.737
40
0.5
50
270
51
0
0
ARC
8
0
10
289.15625
20
-51.737
40
0.5
50
90
51
180
0
ARC
8
0
10
289.15625
20
-57.737
40
0.5
50
180
51
270
0
LINE
8
0
10
303.65625
20
-75.613
11
303.65625
21
-81.613
0
LINE
8
0
10
288.65625
20
-75.613
11
288.65625
21
-81.613
0
LINE
8
0
10
303.15625
20
-75.113
11
289.15625
21
-75.113
0
LINE
8
0
10
303.15625
20
-82.113
11
289.15625
21
-82.113
0
ARC
8
0
10
303.15625
20
-75.613
40
0.5
50
0
51
90
0
ARC
8
0
10
303.15625
20
-81.613
40
0.5
50
270
51
0
0
ARC
8
0
10
289.15625
20
-75.613
40
0.5
50
90
51
180
0
ARC
8
0
10
289.15625
20
-81.613
40
0.5
50
180
51
270
0
LINE
8
0
10
317.35
20
-50.15
11
330.35
21
-50.15
0
LINE
8
0
10
317.35
20
-64.15
11
330.35
21
-64.15
0
LINE
8
0
10
316.85
20
-50.65
11
316.85
21
-63.65
0
LINE
8
0
10
330.85
20
-50.65
11
330.85
21
-63.65
0
ARC
8
0
10
317.35
20
-50.65
40
0.5
50
90
51
180
0
ARC
8
0
10
330.35
20
-50.65
40
0.5
50
0
51
90
0
ARC
8
0
10
317.35
20
-63.65
40
0.5
50
180
51
270
0
ARC
8
0
10
330.35
20
-63.65
40
0.5
50
270
51
0
0
LINE
8
0
10
3.025
20
-69.2
11
16.025
21
-69.2
0
LINE
8
0
10
3.025
20
-83.2
11
16.025
21
-83.2
0
LINE
8
0
10
2.525
20
-69.7
11
2.525
21
-82.7
0
LINE
8
0
10
16.525
20
-69.7
11
16.525
21
-82.7
0
ARC
8
0
10
3.025
20
-69.7
40
0.5
50
90
51
180
0
ARC
8
0
10
16.025
20
-69.7
40
0.5
50
0
51
90
0
ARC
8
0
10
3.025
20
-82.7
40
0.5
50
180
51
270
0
ARC
8
0
10
16.025
20
-82.7
40
0.5
50
270
51
0
0
LINE
8
0
10
33.98125
20
-69.2
11
46.98125
21
-69.2
0
LINE
8
0
10
33.98125
20
-83.2
11
46.98125
21
-83.2
0
LINE
8
0
10
33.48125
20
-69.7
11
33.48125
21
-82.7
0
LINE
8
0
10
47.48125
20
-69.7
11
47.48125
21
-82.7
0
ARC
8
0
10
33.98125
20
-69.7
40
0.5
50
90
51
180
0
ARC
8
0
10
46.98125
20
-69.7
40
0.5
50
0
51
90
0
ARC
8
0
10
33.98125
20
-82.7
40
0.5
50
180
51
270
0
ARC
8
0
10
46.98125
20
-82.7
40
0.5
50
270
51
0
0
LINE
8
0
10
29.21875
20
-69.2
11
42.21875
21
-69.2
0
LINE
8
0
10
29.21875
20
-83.2
11
42.21875
21
-83.2
0
LINE
8
0
10
28.71875
20
-69.7
11
28.71875
21
-82.7
0
LINE
8
0
10
42.71875
20
-69.7
11
42.71875
21
-82.7
0
ARC
8
0
10
29.21875
20
-69.7
40
0.5
50
90
51
180
0
ARC
8
0
10
42.21875
20
-69.7
40
0.5
50
0
51
90
0
ARC
8
0
10
29.21875
20
-82.7
40
0.5
50
180
51
270
0
ARC
8
0
10
42.21875
20
-82.7
40
0.5
50
270
51
0
0
LINE
8
0
10
60.175
20
-69.2
11
73.175
21
-69.2
0
LINE
8
0
10
60.175
20
-83.2
11
73.175
21
-83.2
0
LINE
8
0
10
59.675
20
-69.7
11
59.675
21
-82.7
0
LINE
8
0
10
73.675
20
-69.7
11
73.675
21
-82.7
0
ARC
8
0
10
60.175
20
-69.7
40
0.5
50
90
51
180
0
ARC
8
0
10
73.175
20
-69.7
40
0.5
50
0
51
90
0
ARC
8
0
10
60.175
20
-82.7
40
0.5
50
180
51
270
0
ARC
8
0
10
73.175
20
-82.7
40
0.5
50
270
51
0
0
LINE
8
0
10
79.225
20
-69.2
11
92.225
21
-69.2
0
LINE
8
0
10
79.225
20
-83.2
11
92.225
21
-83.2
0
LINE
8
0
10
78.725
20
-69.7
11
78.725
21
-82.7
0
LINE
8
0
10
92.725
20
-69.7
11
92.725
21
-82.7
0
ARC
8
0
10
79.225
20
-69.7
40
0.5
50
90
51
180
0
ARC
8
0
10
92.225
20
-69.7
40
0.5
50
0
51
90
0
ARC
8
0
10
79.225
20
-82.7
40
0.5
50
180
51
270
0
ARC
8
0
10
92.225
20
-82.7
40
0.5
50
270
51
0
0
LINE
8
0
10
98.275
20
-69.2
11
111.275
21
-69.2
0
LINE
8
0
10
98.275
20
-83.2
11
111.275
21
-83.2
0
LINE
8
0
10
97.775
20
-69.7
11
97.775
21
-82.7
0
LINE
8
0
10
111.775
20
-69.7
11
111.775
21
-82.7
0
ARC
8
0
10
98.275
20
-69.7
40
0.5
50
90
51
180
0
ARC
8
0
10
111.275
20
-69.7
40
0.5
50
0
51
90
0
ARC
8
0
10
98.275
20
-82.7
40
0.5
50
180
51
270
0
ARC
8
0
10
111.275
20
-82.7
40
0.5
50
270
51
0
0
LINE
8
0
10
117.325
20
-69.2
11
130.325
21
-69.2
0
LINE
8
0
10
117.325
20
-83.2
11
130.325
21
-83.2
0
LINE
8
0
10
116.825
20
-69.7
11
116.825
21
-82.7
0
LINE
8
0
10
130.825
20
-69.7
11
130.825
21
-82.7
0
ARC
8
0
10
117.325
20
-69.7
40
0.5
50
90
51
180
0
ARC
8
0
10
130.325
20
-69.7
40
0.5
50
0
51
90
0
ARC
8
0
10
117.325
20
-82.7
40
0.5
50
180
51
270
0
ARC
8
0
10
130.325
20
-82.7
40
0.5
50
270
51
0
0
LINE
8
0
10
136.375
20
-69.2
11
149.375
21
-69.2
0
LINE
8
0
10
136.375
20
-83.2
11
149.375
21
-83.2
0
LINE
8
0
10
135.875
20
-69.7
11
135.875
21
-82.7
0
LINE
8
0
10
149.875
20
-69.7
11
149.875
21
-82.7
0
ARC
8
0
10
136.375
20
-69.7
40
0.5
50
90
51
180
0
ARC
8
0
10
149.375
20
-69.7
40
0.5
50
0
51
90
0
ARC
8
0
10
136.375
20
-82.7
40
0.5
50
180
51
270
0
ARC
8
0
10
149.375
20
-82.7
40
0.5
50
270
51
0
0
LINE
8
0
10
155.425
20
-69.2
11
168.425
21
-69.2
0
LINE
8
0
10
155.425
20
-83.2
11
168.425
21
-83.2
0
LINE
8
0
10
154.925
20
-69.7
11
154.925
21
-82.7
0
LINE
8
0
10
168.925
20
-69.7
11
168.925
21
-82.7
0
ARC
8
0
10
155.425
20
-69.7
40
0.5
50
90
51
180
0
ARC
8
0
10
168.425
20
-69.7
40
0.5
50
0
51
90
0
ARC
8
0
10
155.425
20
-82.7
40
0.5
50
180
51
270
0
ARC
8
0
10
168.425
20
-82.7
40
0.5
50
270
51
0
0
LINE
8
0
10
174.475
20
-69.2
11
187.475
21
-69.2
0
LINE
8
0
10
174.475
20
-83.2
11
187.475
21
-83.2
0
LINE
8
0
10
173.975
20
-69.7
11
173.975
21
-82.7
0
LINE
8
0
10
187.975
20
-69.7
11
187.975
21
-82.7
0
ARC
8
0
10
174.475
20
-69.7
40
0.5
50
90
51
180
0
ARC
8
0
10
187.475
20
-69.7
40
0.5
50
0
51
90
0
ARC
8
0
10
174.475
20
-82.7
40
0.5
50
180
51
270
0
ARC
8
0
10
187.475
20
-82.7
40
0.5
50
270
51
0
0
LINE
8
0
10
193.525
20
-69.2
11
206.525
21
-69.2
0
LINE
8
0
10
193.525
20
-83.2
11
206.525
21
-83.2
0
LINE
8
0
10
193.025
20
-69.7
11
193.025
21
-82.7
0
LINE
8
0
10
207.025
20
-69.7
11
207.025
21
-82.7
0
ARC
8
0
10
193.525
20
-69.7
40
0.5
50
90
51
180
0
ARC
8
0
10
206.525
20
-69.7
40
0.5
50
0
51
90
0
ARC
8
0
10
193.525
20
-82.7
40
0.5
50
180
51
270
0
ARC
8
0
10
206.525
20
-82.7
40
0.5
50
270
51
0
0
LINE
8
0
10
212.575
20
-69.2
11
225.575
21
-69.2
0
LINE
8
0
10
212.575
20
-83.2
11
225.575
21
-83.2
0
LINE
8
0
10
212.075
20
-69.7
11
212.075
21
-82.7
0
LINE
8
0
10
226.075
20
-69.7
11
226.075
21
-82.7
0
ARC
8
0
10
212.575
20
-69.7
40
0.5
50
90
51
180
0
ARC
8
0
10
225.575
20
-69.7
40
0.5
50
0
51
90
0
ARC
8
0
10
212.575
20
-82.7
40
0.5
50
180
51
270
0
ARC
8
0
10
225.575
20
-82.7
40
0.5
50
270
51
0
0
LINE
8
0
10
231.625
20
-69.2
11
244.625
21
-69.2
0
LINE
8
0
10
231.625
20
-83.2
11
244.625
21
-83.2
0
LINE
8
0
10
231.125
20
-69.7
11
231.125
21
-82.7
0
LINE
8
0
10
245.125
20
-69.7
11
245.125
21
-82.7
0
ARC
8
0
10
231.625
20
-69.7
40
0.5
50
90
51
180
0
ARC
8
0
10
244.625
20
-69.7
40
0.5
50
0
51
90
0
ARC
8
0
10
231.625
20
-82.7
40
0.5
50
180
51
270
0
ARC
8
0
10
244.625
20
-82.7
40
0.5
50
270
51
0
0
LINE
8
0
10
250.675
20
-69.2
11
263.675
21
-69.2
0
LINE
8
0
10
250.675
20
-83.2
11
263.675
21
-83.2
0
LINE
8
0
10
250.175
20
-69.7
11
250.175
21
-82.7
0
LINE
8
0
10
264.175
20
-69.7
11
264.175
21
-82.7
0
ARC
8
0
10
250.675
20
-69.7
40
0.5
50
90
51
180
0
ARC
8
0
10
263.675
20
-69.7
40
0.5
50
0
51
90
0
ARC
8
0
10
250.675
20
-82.7
40
0.5
50
180
51
270
0
ARC
8
0
10
263.675
20
-82.7
40
0.5
50
270
51
0
0
LINE
8
0
10
269.725
20
-69.2
11
282.725
21
-69.2
0
LINE
8
0
10
269.725
20
-83.2
11
282.725
21
-83.2
0
LINE
8
0
10
269.225
20
-69.7
11
269.225
21
-82.7
0
LINE
8
0
10
283.225
20
-69.7
11
283.225
21
-82.7
0
ARC
8
0
10
269.725
20
-69.7
40
0.5
50
90
51
180
0
ARC
8
0
10
282.725
20
-69.7
40
0.5
50
0
51
90
0
ARC
8
0
10
269.725
20
-82.7
40
0.5
50
180
51
270
0
ARC
8
0
10
282.725
20
-82.7
40
0.5
50
270
51
0
0
LINE
8
0
10
281.63125
20
-69.2
11
294.63125
21
-69.2
0
LINE
8
0
10
281.63125
20
-83.2
11
294.63125
21
-83.2
0
LINE
8
0
10
281.13125
20
-69.7
11
281.13125
21
-82.7
0
LINE
8
0
10
295.13125
20
-69.7
11
295.13125
21
-82.7
0
ARC
8
0
10
281.63125
20
-69.7
40
0.5
50
90
51
180
0
ARC
8
0
10
294.63125
20
-69.7
40
0.5
50
0
51
90
0
ARC
8
0
10
281.63125
20
-82.7
40
0.5
50
180
51
270
0
ARC
8
0
10
294.63125
20
-82.7
40
0.5
50
270
51
0
0
LINE
8
0
10
273.19325
20
-70.2
11
279.19325
21
-70.2
0
LINE
8
0
10
273.19325
20
-85.2
11
279.19325
21
-85.2
0
LINE
8
0
10
272.69325
20
-70.7
11
272.69325
21
-84.7
0
LINE
8
0
10
279.69325
20
-70.7
11
279.69325
21
-84.7
0
ARC
8
0
10
273.19325
20
-70.7
40
0.5
50
90
51
180
0
ARC
8
0
10
279.19325
20
-70.7
40
0.5
50
0
51
90
0
ARC
8
0
10
273.19325
20
-84.7
40
0.5
50
180
51
270
0
ARC
8
0
10
279.19325
20
-84.7
40
0.5
50
270
51
0
0
LINE
8
0
10
297.06925
20
-70.2
11
303.06925
21
-70.2
0
LINE
8
0
10
297.06925
20
-85.2
11
303.06925
21
-85.2
0
LINE
8
0
10
296.56925
20
-70.7
11
296.56925
21
-84.7
0
LINE
8
0
10
303.56925
20
-70.7
11
303.56925
21
-84.7
0
ARC
8
0
10
297.06925
20
-70.7
40
0.5
50
90
51
180
0
ARC
8
0
10
303.06925
20
-70.7
40
0.5
50
0
51
90
0
ARC
8
0
10
297.06925
20
-84.7
40
0.5
50
180
51
270
0
ARC
8
0
10
303.06925
20
-84.7
40
0.5
50
270
51
0
0
LINE
8
0
10
317.35
20
-69.2
11
330.35
21
-69.2
0
LINE
8
0
10
317.35
20
-83.2
11
330.35
21
-83.2
0
LINE
8
0
10
316.85
20
-69.7
11
316.85
21
-82.7
0
LINE
8
0
10
330.85
20
-69.7
11
330.85
21
-82.7
0
ARC
8
0
10
317.35
20
-69.7
40
0.5
50
90
51
180
0
ARC
8
0
10
330.35
20
-69.7
40
0.5
50
0
51
90
0
ARC
8
0
10
317.35
20
-82.7
40
0.5
50
180
51
270
0
ARC
8
0
10
330.35
20
-82.7
40
0.5
50
270
51
0
0
LINE
8
0
10
3.025
20
-88.25
11
16.025
21
-88.25
0
LINE
8
0
10
3.025
20
-102.25
11
16.025
21
-102.25
0
LINE
8
0
10
2.525
20
-88.75
11
2.525
21
-101.75
0
LINE
8
0
10
16.525
20
-88.75
11
16.525
21
-101.75
0
ARC
8
0
10
3.025
20
-88.75
40
0.5
50
90
51
180
0
ARC
8
0
10
16.025
20
-88.75
40
0.5
50
0
51
90
0
ARC
8
0
10
3.025
20
-101.75
40
0.5
50
180
51
270
0
ARC
8
0
10
16.025
20
-101.75
40
0.5
50
270
51
0
0
LINE
8
0
10
29.21875
20
-88.25
11
42.21875
21
-88.25
0
LINE
8
0
10
29.21875
20
-102.25
11
42.21875
21
-102.25
0
LINE
8
0
10
28.71875
20
-88.75
11
28.71875
21
-101.75
0
LINE
8
0
10
42.71875
20
-88.75
11
42.71875
21
-101.75
0
ARC
8
0
10
29.21875
20
-88.75
40
0.5
50
90
51
180
0
ARC
8
0
10
42.21875
20
-88.75
40
0.5
50
0
51
90
0
ARC
8
0
10
29.21875
20
-101.75
40
0.5
50
180
51
270
0
ARC
8
0
10
42.21875
20
-101.75
40
0.5
50
270
51
0
0
LINE
8
0
10
38.74375
20
-88.25
11
51.74375
21
-88.25
0
LINE
8
0
10
38.74375
20
-102.25
11
51.74375
21
-102.25
0
LINE
8
0
10
38.24375
20
-88.75
11
38.24375
21
-101.75
0
LINE
8
0
10
52.24375
20
-88.75
11
52.24375
21
-101.75
0
ARC
8
0
10
38.74375
20
-88.75
40
0.5
50
90
51
180
0
ARC
8
0
10
51.74375
20
-88.75
40
0.5
50
0
51
90
0
ARC
8
0
10
38.74375
20
-101.75
40
0.5
50
180
51
270
0
ARC
8
0
10
51.74375
20
-101.75
40
0.5
50
270
51
0
0
LINE
8
0
10
30.30575
20
-89.25
11
36.30575
21
-89.25
0
LINE
8
0
10
30.30575
20
-104.25
11
36.30575
21
-104.25
0
LINE
8
0
10
29.80575
20
-89.75
11
29.80575
21
-103.75
0
LINE
8
0
10
36.80575
20
-89.75
11
36.80575
21
-103.75
0
ARC
8
0
10
30.30575
20
-89.75
40
0.5
50
90
51
180
0
ARC
8
0
10
36.30575
20
-89.75
40
0.5
50
0
51
90
0
ARC
8
0
10
30.30575
20
-103.75
40
0.5
50
180
51
270
0
ARC
8
0
10
36.30575
20
-103.75
40
0.5
50
270
51
0
0
LINE
8
0
10
54.18175
20
-89.25
11
60.18175
21
-89.25
0
LINE
8
0
10
54.18175
20
-104.25
11
60.18175
21
-104.25
0
LINE
8
0
10
53.68175
20
-89.75
11
53.68175
21
-103.75
0
LINE
8
0
10
60.68175
20
-89.75
11
60.68175
21
-103.75
0
ARC
8
0
10
54.18175
20
-89.75
40
0.5
50
90
51
180
0
ARC
8
0
10
60.18175
20
-89.75
40
0.5
50
0
51
90
0
ARC
8
0
10
54.18175
20
-103.75
40
0.5
50
180
51
270
0
ARC
8
0
10
60.18175
20
-103.75
40
0.5
50
270
51
0
0
LINE
8
0
10
69.7
20
-88.25
11
82.7
21
-88.25
0
LINE
8
0
10
69.7
20
-102.25
11
82.7
21
-102.25
0
LINE
8
0
10
69.2
20
-88.75
11
69.2
21
-101.75
0
LINE
8
0
10
83.2
20
-88.75
11
83.2
21
-101.75
0
ARC
8
0
10
69.7
20
-88.75
40
0.5
50
90
51
180
0
ARC
8
0
10
82.7
20
-88.75
40
0.5
50
0
51
90
0
ARC
8
0
10
69.7
20
-101.75
40
0.5
50
180
51
270
0
ARC
8
0
10
82.7
20
-101.75
40
0.5
50
270
51
0
0
LINE
8
0
10
88.75
20
-88.25
11
101.75
21
-88.25
0
LINE
8
0
10
88.75
20
-102.25
11
101.75
21
-102.25
0
LINE
8
0
10
88.25
20
-88.75
11
88.25
21
-101.75
0
LINE
8
0
10
102.25
20
-88.75
11
102.25
21
-101.75
0
ARC
8
0
10
88.75
20
-88.75
40
0.5
50
90
51
180
0
ARC
8
0
10
101.75
20
-88.75
40
0.5
50
0
51
90
0
ARC
8
0
10
88.75
20
-101.75
40
0.5
50
180
51
270
0
ARC
8
0
10
101.75
20
-101.75
40
0.5
50
270
51
0
0
LINE
8
0
10
107.8
20
-88.25
11
120.8
21
-88.25
0
LINE
8
0
10
107.8
20
-102.25
11
120.8
21
-102.25
0
LINE
8
0
10
107.3
20
-88.75
11
107.3
21
-101.75
0
LINE
8
0
10
121.3
20
-88.75
11
121.3
21
-101.75
0
ARC
8
0
10
107.8
20
-88.75
40
0.5
50
90
51
180
0
ARC
8
0
10
120.8
20
-88.75
40
0.5
50
0
51
90
0
ARC
8
0
10
107.8
20
-101.75
40
0.5
50
180
51
270
0
ARC
8
0
10
120.8
20
-101.75
40
0.5
50
270
51
0
0
LINE
8
0
10
126.85
20
-88.25
11
139.85
21
-88.25
0
LINE
8
0
10
126.85
20
-102.25
11
139.85
21
-102.25
0
LINE
8
0
10
126.35
20
-88.75
11
126.35
21
-101.75
0
LINE
8
0
10
140.35
20
-88.75
11
140.35
21
-101.75
0
ARC
8
0
10
126.85
20
-88.75
40
0.5
50
90
51
180
0
ARC
8
0
10
139.85
20
-88.75
40
0.5
50
0
51
90
0
ARC
8
0
10
126.85
20
-101.75
40
0.5
50
180
51
270
0
ARC
8
0
10
139.85
20
-101.75
40
0.5
50
270
51
0
0
LINE
8
0
10
145.9
20
-88.25
11
158.9
21
-88.25
0
LINE
8
0
10
145.9
20
-102.25
11
158.9
21
-102.25
0
LINE
8
0
10
145.4
20
-88.75
11
145.4
21
-101.75
0
LINE
8
0
10
159.4
20
-88.75
11
159.4
21
-101.75
0
ARC
8
0
10
145.9
20
-88.75
40
0.5
50
90
51
180
0
ARC
8
0
10
158.9
20
-88.75
40
0.5
50
0
51
90
0
ARC
8
0
10
145.9
20
-101.75
40
0.5
50
180
51
270
0
ARC
8
0
10
158.9
20
-101.75
40
0.5
50
270
51
0
0
LINE
8
0
10
164.95
20
-88.25
11
177.95
21
-88.25
0
LINE
8
0
10
164.95
20
-102.25
11
177.95
21
-102.25
0
LINE
8
0
10
164.45
20
-88.75
11
164.45
21
-101.75
0
LINE
8
0
10
178.45
20
-88.75
11
178.45
21
-101.75
0
ARC
8
0
10
164.95
20
-88.75
40
0.5
50
90
51
180
0
ARC
8
0
10
177.95
20
-88.75
40
0.5
50
0
51
90
0
ARC
8
0
10
164.95
20
-101.75
40
0.5
50
180
51
270
0
ARC
8
0
10
177.95
20
-101.75
40
0.5
50
270
51
0
0
LINE
8
0
10
184
20
-88.25
11
197
21
-88.25
0
LINE
8
0
10
184
20
-102.25
11
197
21
-102.25
0
LINE
8
0
10
183.5
20
-88.75
11
183.5
21
-101.75
0
LINE
8
0
10
197.5
20
-88.75
11
197.5
21
-101.75
0
ARC
8
0
10
184
20
-88.75
40
0.5
50
90
51
180
0
ARC
8
0
10
197
20
-88.75
40
0.5
50
0
51
90
0
ARC
8
0
10
184
20
-101.75
40
0.5
50
180
51
270
0
ARC
8
0
10
197
20
-101.75
40
0.5
50
270
51
0
0
LINE
8
0
10
203.05
20
-88.25
11
216.05
21
-88.25
0
LINE
8
0
10
203.05
20
-102.25
11
216.05
21
-102.25
0
LINE
8
0
10
202.55
20
-88.75
11
202.55
21
-101.75
0
LINE
8
0
10
216.55
20
-88.75
11
216.55
21
-101.75
0
ARC
8
0
10
203.05
20
-88.75
40
0.5
50
90
51
180
0
ARC
8
0
10
216.05
20
-88.75
40
0.5
50
0
51
90
0
ARC
8
0
10
203.05
20
-101.75
40
0.5
50
180
51
270
0
ARC
8
0
10
216.05
20
-101.75
40
0.5
50
270
51
0
0
LINE
8
0
10
222.1
20
-88.25
11
235.1
21
-88.25
0
LINE
8
0
10
222.1
20
-102.25
11
235.1
21
-102.25
0
LINE
8
0
10
221.6
20
-88.75
11
221.6
21
-101.75
0
LINE
8
0
10
235.6
20
-88.75
11
235.6
21
-101.75
0
ARC
8
0
10
222.1
20
-88.75
40
0.5
50
90
51
180
0
ARC
8
0
10
235.1
20
-88.75
40
0.5
50
0
51
90
0
ARC
8
0
10
222.1
20
-101.75
40
0.5
50
180
51
270
0
ARC
8
0
10
235.1
20
-101.75
40
0.5
50
270
51
0
0
LINE
8
0
10
241.15
20
-88.25
11
254.15
21
-88.25
0
LINE
8
0
10
241.15
20
-102.25
11
254.15
21
-102.25
0
LINE
8
0
10
240.65
20
-88.75
11
240.65
21
-101.75
0
LINE
8
0
10
254.65
20
-88.75
11
254.65
21
-101.75
0
ARC
8
0
10
241.15
20
-88.75
40
0.5
50
90
51
180
0
ARC
8
0
10
254.15
20
-88.75
40
0.5
50
0
51
90
0
ARC
8
0
10
241.15
20
-101.75
40
0.5
50
180
51
270
0
ARC
8
0
10
254.15
20
-101.75
40
0.5
50
270
51
0
0
LINE
8
0
10
317.35
20
-88.25
11
330.35
21
-88.25
0
LINE
8
0
10
317.35
20
-102.25
11
330.35
21
-102.25
0
LINE
8
0
10
316.85
20
-88.75
11
316.85
21
-101.75
0
LINE
8
0
10
330.85
20
-88.75
11
330.85
21
-101.75
0
ARC
8
0
10
317.35
20
-88.75
40
0.5
50
90
51
180
0
ARC
8
0
10
330.35
20
-88.75
40
0.5
50
0
51
90
0
ARC
8
0
10
317.35
20
-101.75
40
0.5
50
180
51
270
0
ARC
8
0
10
330.35
20
-101.75
40
0.5
50
270
51
0
0
LINE
8
0
10
293.5375
20
-93.0125
11
306.5375
21
-93.0125
0
LINE
8
0
10
293.5375
20
-107.0125
11
306.5375
21
-107.0125
0
LINE
8
0
10
293.0375
20
-93.5125
11
293.0375
21
-106.5125
0
LINE
8
0
10
307.0375
20
-93.5125
11
307.0375
21
-106.5125
0
ARC
8
0
10
293.5375
20
-93.5125
40
0.5
50
90
51
180
0
ARC
8
0
10
306.5375
20
-93.5125
40
0.5
50
0
51
90
0
ARC
8
0
10
293.5375
20
-106.5125
40
0.5
50
180
51
270
0
ARC
8
0
10
306.5375
20
-106.5125
40
0.5
50
270
51
0
0
LINE
8
0
10
3.025
20
-107.3
11
16.025
21
-107.3
0
LINE
8
0
10
3.025
20
-121.3
11
16.025
21
-121.3
0
LINE
8
0
10
2.525
20
-107.8
11
2.525
21
-120.8
0
LINE
8
0
10
16.525
20
-107.8
11
16.525
21
-120.8
0
ARC
8
0
10
3.025
20
-107.8
40
0.5
50
90
51
180
0
ARC
8
0
10
16.025
20
-107.8
40
0.5
50
0
51
90
0
ARC
8
0
10
3.025
20
-120.8
40
0.5
50
180
51
270
0
ARC
8
0
10
16.025
20
-120.8
40
0.5
50
270
51
0
0
LINE
8
0
10
29.21875
20
-107.3
11
42.21875
21
-107.3
0
LINE
8
0
10
29.21875
20
-121.3
11
42.21875
21
-121.3
0
LINE
8
0
10
28.71875
20
-107.8
11
28.71875
21
-120.8
0
LINE
8
0
10
42.71875
20
-107.8
11
42.71875
21
-120.8
0
ARC
8
0
10
29.21875
20
-107.8
40
0.5
50
90
51
180
0
ARC
8
0
10
42.21875
20
-107.8
40
0.5
50
0
51
90
0
ARC
8
0
10
29.21875
20
-120.8
40
0.5
50
180
51
270
0
ARC
8
0
10
42.21875
20
-120.8
40
0.5
50
270
51
0
0
LINE
8
0
10
29.21875
20
-107.3
11
42.21875
21
-107.3
0
LINE
8
0
10
29.21875
20
-121.3
11
42.21875
21
-121.3
0
LINE
8
0
10
28.71875
20
-107.8
11
28.71875
21
-120.8
0
LINE
8
0
10
42.71875
20
-107.8
11
42.71875
21
-120.8
0
ARC
8
0
10
29.21875
20
-107.8
40
0.5
50
90
51
180
0
ARC
8
0
10
42.21875
20
-107.8
40
0.5
50
0
51
90
0
ARC
8
0
10
29.21875
20
-120.8
40
0.5
50
180
51
270
0
ARC
8
0
10
42.21875
20
-120.8
40
0.5
50
270
51
0
0
LINE
8
0
10
53.03125
20
-107.3
11
66.03125
21
-107.3
0
LINE
8
0
10
53.03125
20
-121.3
11
66.03125
21
-121.3
0
LINE
8
0
10
52.53125
20
-107.8
11
52.53125
21
-120.8
0
LINE
8
0
10
66.53125
20
-107.8
11
66.53125
21
-120.8
0
ARC
8
0
10
53.03125
20
-107.8
40
0.5
50
90
51
180
0
ARC
8
0
10
66.03125
20
-107.8
40
0.5
50
0
51
90
0
ARC
8
0
10
53.03125
20
-120.8
40
0.5
50
180
51
270
0
ARC
8
0
10
66.03125
20
-120.8
40
0.5
50
270
51
0
0
LINE
8
0
10
53.03125
20
-107.3
11
66.03125
21
-107.3
0
LINE
8
0
10
53.03125
20
-121.3
11
66.03125
21
-121.3
0
LINE
8
0
10
52.53125
20
-107.8
11
52.53125
21
-120.8
0
LINE
8
0
10
66.53125
20
-107.8
11
66.53125
21
-120.8
0
ARC
8
0
10
53.03125
20
-107.8
40
0.5
50
90
51
180
0
ARC
8
0
10
66.03125
20
-107.8
40
0.5
50
0
51
90
0
ARC
8
0
10
53.03125
20
-120.8
40
0.5
50
180
51
270
0
ARC
8
0
10
66.03125
20
-120.8
40
0.5
50
270
51
0
0
LINE
8
0
10
76.84375
20
-107.3
11
89.84375
21
-107.3
0
LINE
8
0
10
76.84375
20
-121.3
11
89.84375
21
-121.3
0
LINE
8
0
10
76.34375
20
-107.8
11
76.34375
21
-120.8
0
LINE
8
0
10
90.34375
20
-107.8
11
90.34375
21
-120.8
0
ARC
8
0
10
76.84375
20
-107.8
40
0.5
50
90
51
180
0
ARC
8
0
10
89.84375
20
-107.8
40
0.5
50
0
51
90
0
ARC
8
0
10
76.84375
20
-120.8
40
0.5
50
180
51
270
0
ARC
8
0
10
89.84375
20
-120.8
40
0.5
50
270
51
0
0
LINE
8
0
10
131.6125
20
-107.3
11
144.6125
21
-107.3
0
LINE
8
0
10
131.6125
20
-121.3
11
144.6125
21
-121.3
0
LINE
8
0
10
131.1125
20
-107.8
11
131.1125
21
-120.8
0
LINE
8
0
10
145.1125
20
-107.8
11
145.1125
21
-120.8
0
ARC
8
0
10
131.6125
20
-107.8
40
0.5
50
90
51
180
0
ARC
8
0
10
144.6125
20
-107.8
40
0.5
50
0
51
90
0
ARC
8
0
10
131.6125
20
-120.8
40
0.5
50
180
51
270
0
ARC
8
0
10
144.6125
20
-120.8
40
0.5
50
270
51
0
0
LINE
8
0
10
77.9625
20
-108.3
11
83.9625
21
-108.3
0
LINE
8
0
10
77.9625
20
-123.3
11
83.9625
21
-123.3
0
LINE
8
0
10
77.4625
20
-108.8
11
77.4625
21
-122.8
0
LINE
8
0
10
84.4625
20
-108.8
11
84.4625
21
-122.8
0
ARC
8
0
10
77.9625
20
-108.8
40
0.5
50
90
51
180
0
ARC
8
0
10
83.9625
20
-108.8
40
0.5
50
0
51
90
0
ARC
8
0
10
77.9625
20
-122.8
40
0.5
50
180
51
270
0
ARC
8
0
10
83.9625
20
-122.8
40
0.5
50
270
51
0
0
LINE
8
0
10
192.2625
20
-108.3
11
198.2625
21
-108.3
0
LINE
8
0
10
192.2625
20
-123.3
11
198.2625
21
-123.3
0
LINE
8
0
10
191.7625
20
-108.8
11
191.7625
21
-122.8
0
LINE
8
0
10
198.7625
20
-108.8
11
198.7625
21
-122.8
0
ARC
8
0
10
192.2625
20
-108.8
40
0.5
50
90
51
180
0
ARC
8
0
10
198.2625
20
-108.8
40
0.5
50
0
51
90
0
ARC
8
0
10
192.2625
20
-122.8
40
0.5
50
180
51
270
0
ARC
8
0
10
198.2625
20
-122.8
40
0.5
50
270
51
0
0
LINE
8
0
10
93.5125
20
-107.3
11
106.5125
21
-107.3
0
LINE
8
0
10
93.5125
20
-121.3
11
106.5125
21
-121.3
0
LINE
8
0
10
93.0125
20
-107.8
11
93.0125
21
-120.8
0
LINE
8
0
10
107.0125
20
-107.8
11
107.0125
21
-120.8
0
ARC
8
0
10
93.5125
20
-107.8
40
0.5
50
90
51
180
0
ARC
8
0
10
106.5125
20
-107.8
40
0.5
50
0
51
90
0
ARC
8
0
10
93.5125
20
-120.8
40
0.5
50
180
51
270
0
ARC
8
0
10
106.5125
20
-120.8
40
0.5
50
270
51
0
0
LINE
8
0
10
77.9625
20
-108.3
11
83.9625
21
-108.3
0
LINE
8
0
10
77.9625
20
-123.3
11
83.9625
21
-123.3
0
LINE
8
0
10
77.4625
20
-108.8
11
77.4625
21
-122.8
0
LINE
8
0
10
84.4625
20
-108.8
11
84.4625
21
-122.8
0
ARC
8
0
10
77.9625
20
-108.8
40
0.5
50
90
51
180
0
ARC
8
0
10
83.9625
20
-108.8
40
0.5
50
0
51
90
0
ARC
8
0
10
77.9625
20
-122.8
40
0.5
50
180
51
270
0
ARC
8
0
10
83.9625
20
-122.8
40
0.5
50
270
51
0
0
LINE
8
0
10
116.0625
20
-108.3
11
122.0625
21
-108.3
0
LINE
8
0
10
116.0625
20
-123.3
11
122.0625
21
-123.3
0
LINE
8
0
10
115.5625
20
-108.8
11
115.5625
21
-122.8
0
LINE
8
0
10
122.5625
20
-108.8
11
122.5625
21
-122.8
0
ARC
8
0
10
116.0625
20
-108.8
40
0.5
50
90
51
180
0
ARC
8
0
10
122.0625
20
-108.8
40
0.5
50
0
51
90
0
ARC
8
0
10
116.0625
20
-122.8
40
0.5
50
180
51
270
0
ARC
8
0
10
122.0625
20
-122.8
40
0.5
50
270
51
0
0
LINE
8
0
10
148.28125
20
-107.3
11
161.28125
21
-107.3
0
LINE
8
0
10
148.28125
20
-121.3
11
161.28125
21
-121.3
0
LINE
8
0
10
147.78125
20
-107.8
11
147.78125
21
-120.8
0
LINE
8
0
10
161.78125
20
-107.8
11
161.78125
21
-120.8
0
ARC
8
0
10
148.28125
20
-107.8
40
0.5
50
90
51
180
0
ARC
8
0
10
161.28125
20
-107.8
40
0.5
50
0
51
90
0
ARC
8
0
10
148.28125
20
-120.8
40
0.5
50
180
51
270
0
ARC
8
0
10
161.28125
20
-120.8
40
0.5
50
270
51
0
0
LINE
8
0
10
101.78125
20
-108.3
11
107.78125
21
-108.3
0
LINE
8
0
10
101.78125
20
-123.3
11
107.78125
21
-123.3
0
LINE
8
0
10
101.28125
20
-108.8
11
101.28125
21
-122.8
0
LINE
8
0
10
108.28125
20
-108.8
11
108.28125
21
-122.8
0
ARC
8
0
10
101.78125
20
-108.8
40
0.5
50
90
51
180
0
ARC
8
0
10
107.78125
20
-108.8
40
0.5
50
0
51
90
0
ARC
8
0
10
101.78125
20
-122.8
40
0.5
50
180
51
270
0
ARC
8
0
10
107.78125
20
-122.8
40
0.5
50
270
51
0
0
LINE
8
0
10
201.78125
20
-108.3
11
207.78125
21
-108.3
0
LINE
8
0
10
201.78125
20
-123.3
11
207.78125
21
-123.3
0
LINE
8
0
10
201.28125
20
-108.8
11
201.28125
21
-122.8
0
LINE
8
0
10
208.28125
20
-108.8
11
208.28125
21
-122.8
0
ARC
8
0
10
201.78125
20
-108.8
40
0.5
50
90
51
180
0
ARC
8
0
10
207.78125
20
-108.8
40
0.5
50
0
51
90
0
ARC
8
0
10
201.78125
20
-122.8
40
0.5
50
180
51
270
0
ARC
8
0
10
207.78125
20
-122.8
40
0.5
50
270
51
0
0
LINE
8
0
10
131.6125
20
-107.3
11
144.6125
21
-107.3
0
LINE
8
0
10
131.6125
20
-121.3
11
144.6125
21
-121.3
0
LINE
8
0
10
131.1125
20
-107.8
11
131.1125
21
-120.8
0
LINE
8
0
10
145.1125
20
-107.8
11
145.1125
21
-120.8
0
ARC
8
0
10
131.6125
20
-107.8
40
0.5
50
90
51
180
0
ARC
8
0
10
144.6125
20
-107.8
40
0.5
50
0
51
90
0
ARC
8
0
10
131.6125
20
-120.8
40
0.5
50
180
51
270
0
ARC
8
0
10
144.6125
20
-120.8
40
0.5
50
270
51
0
0
LINE
8
0
10
169.7125
20
-107.3
11
182.7125
21
-107.3
0
LINE
8
0
10
169.7125
20
-121.3
11
182.7125
21
-121.3
0
LINE
8
0
10
169.2125
20
-107.8
11
169.2125
21
-120.8
0
LINE
8
0
10
183.2125
20
-107.8
11
183.2125
21
-120.8
0
ARC
8
0
10
169.7125
20
-107.8
40
0.5
50
90
51
180
0
ARC
8
0
10
182.7125
20
-107.8
40
0.5
50
0
51
90
0
ARC
8
0
10
169.7125
20
-120.8
40
0.5
50
180
51
270
0
ARC
8
0
10
182.7125
20
-120.8
40
0.5
50
270
51
0
0
LINE
8
0
10
154.1625
20
-108.3
11
160.1625
21
-108.3
0
LINE
8
0
10
154.1625
20
-123.3
11
160.1625
21
-123.3
0
LINE
8
0
10
153.6625
20
-108.8
11
153.6625
21
-122.8
0
LINE
8
0
10
160.6625
20
-108.8
11
160.6625
21
-122.8
0
ARC
8
0
10
154.1625
20
-108.8
40
0.5
50
90
51
180
0
ARC
8
0
10
160.1625
20
-108.8
40
0.5
50
0
51
90
0
ARC
8
0
10
154.1625
20
-122.8
40
0.5
50
180
51
270
0
ARC
8
0
10
160.1625
20
-122.8
40
0.5
50
270
51
0
0
LINE
8
0
10
192.2625
20
-108.3
11
198.2625
21
-108.3
0
LINE
8
0
10
192.2625
20
-123.3
11
198.2625
21
-123.3
0
LINE
8
0
10
191.7625
20
-108.8
11
191.7625
21
-122.8
0
LINE
8
0
10
198.7625
20
-108.8
11
198.7625
21
-122.8
0
ARC
8
0
10
192.2625
20
-108.8
40
0.5
50
90
51
180
0
ARC
8
0
10
198.2625
20
-108.8
40
0.5
50
0
51
90
0
ARC
8
0
10
192.2625
20
-122.8
40
0.5
50
180
51
270
0
ARC
8
0
10
198.2625
20
-122.8
40
0.5
50
270
51
0
0
LINE
8
0
10
207.8125
20
-107.3
11
220.8125
21
-107.3
0
LINE
8
0
10
207.8125
20
-121.3
11
220.8125
21
-121.3
0
LINE
8
0
10
207.3125
20
-107.8
11
207.3125
21
-120.8
0
LINE
8
0
10
221.3125
20
-107.8
11
221.3125
21
-120.8
0
ARC
8
0
10
207.8125
20
-107.8
40
0.5
50
90
51
180
0
ARC
8
0
10
220.8125
20
-107.8
40
0.5
50
0
51
90
0
ARC
8
0
10
207.8125
20
-120.8
40
0.5
50
180
51
270
0
ARC
8
0
10
220.8125
20
-120.8
40
0.5
50
270
51
0
0
LINE
8
0
10
219.71875
20
-107.3
11
232.71875
21
-107.3
0
LINE
8
0
10
219.71875
20
-121.3
11
232.71875
21
-121.3
0
LINE
8
0
10
219.21875
20
-107.8
11
219.21875
21
-120.8
0
LINE
8
0
10
233.21875
20
-107.8
11
233.21875
21
-120.8
0
ARC
8
0
10
219.71875
20
-107.8
40
0.5
50
90
51
180
0
ARC
8
0
10
232.71875
20
-107.8
40
0.5
50
0
51
90
0
ARC
8
0
10
219.71875
20
-120.8
40
0.5
50
180
51
270
0
ARC
8
0
10
232.71875
20
-120.8
40
0.5
50
270
51
0
0
LINE
8
0
10
226.8625
20
-107.3
11
239.8625
21
-107.3
0
LINE
8
0
10
226.8625
20
-121.3
11
239.8625
21
-121.3
0
LINE
8
0
10
226.3625
20
-107.8
11
226.3625
21
-120.8
0
LINE
8
0
10
240.3625
20
-107.8
11
240.3625
21
-120.8
0
ARC
8
0
10
226.8625
20
-107.8
40
0.5
50
90
51
180
0
ARC
8
0
10
239.8625
20
-107.8
40
0.5
50
0
51
90
0
ARC
8
0
10
226.8625
20
-120.8
40
0.5
50
180
51
270
0
ARC
8
0
10
239.8625
20
-120.8
40
0.5
50
270
51
0
0
LINE
8
0
10
243.53125
20
-107.3
11
256.53125
21
-107.3
0
LINE
8
0
10
243.53125
20
-121.3
11
256.53125
21
-121.3
0
LINE
8
0
10
243.03125
20
-107.8
11
243.03125
21
-120.8
0
LINE
8
0
10
257.03125
20
-107.8
11
257.03125
21
-120.8
0
ARC
8
0
10
243.53125
20
-107.8
40
0.5
50
90
51
180
0
ARC
8
0
10
256.53125
20
-107.8
40
0.5
50
0
51
90
0
ARC
8
0
10
243.53125
20
-120.8
40
0.5
50
180
51
270
0
ARC
8
0
10
256.53125
20
-120.8
40
0.5
50
270
51
0
0
LINE
8
0
10
245.9125
20
-107.3
11
258.9125
21
-107.3
0
LINE
8
0
10
245.9125
20
-121.3
11
258.9125
21
-121.3
0
LINE
8
0
10
245.4125
20
-107.8
11
245.4125
21
-120.8
0
LINE
8
0
10
259.4125
20
-107.8
11
259.4125
21
-120.8
0
ARC
8
0
10
245.9125
20
-107.8
40
0.5
50
90
51
180
0
ARC
8
0
10
258.9125
20
-107.8
40
0.5
50
0
51
90
0
ARC
8
0
10
245.9125
20
-120.8
40
0.5
50
180
51
270
0
ARC
8
0
10
258.9125
20
-120.8
40
0.5
50
270
51
0
0
LINE
8
0
10
274.4875
20
-112.0625
11
287.4875
21
-112.0625
0
LINE
8
0
10
274.4875
20
-126.0625
11
287.4875
21
-126.0625
0
LINE
8
0
10
273.9875
20
-112.5625
11
273.9875
21
-125.5625
0
LINE
8
0
10
287.9875
20
-112.5625
11
287.9875
21
-125.5625
0
ARC
8
0
10
274.4875
20
-112.5625
40
0.5
50
90
51
180
0
ARC
8
0
10
287.4875
20
-112.5625
40
0.5
50
0
51
90
0
ARC
8
0
10
274.4875
20
-125.5625
40
0.5
50
180
51
270
0
ARC
8
0
10
287.4875
20
-125.5625
40
0.5
50
270
51
0
0
LINE
8
0
10
293.5375
20
-112.0625
11
306.5375
21
-112.0625
0
LINE
8
0
10
293.5375
20
-126.0625
11
306.5375
21
-126.0625
0
LINE
8
0
10
293.0375
20
-112.5625
11
293.0375
21
-125.5625
0
LINE
8
0
10
307.0375
20
-112.5625
11
307.0375
21
-125.5625
0
ARC
8
0
10
293.5375
20
-112.5625
40
0.5
50
90
51
180
0
ARC
8
0
10
306.5375
20
-112.5625
40
0.5
50
0
51
90
0
ARC
8
0
10
293.5375
20
-125.5625
40
0.5
50
180
51
270
0
ARC
8
0
10
306.5375
20
-125.5625
40
0.5
50
270
51
0
0
LINE
8
0
10
312.5875
20
-112.0625
11
325.5875
21
-112.0625
0
LINE
8
0
10
312.5875
20
-126.0625
11
325.5875
21
-126.0625
0
LINE
8
0
10
312.0875
20
-112.5625
11
312.0875
21
-125.5625
0
LINE
8
0
10
326.0875
20
-112.5625
11
326.0875
21
-125.5625
0
ARC
8
0
10
312.5875
20
-112.5625
40
0.5
50
90
51
180
0
ARC
8
0
10
325.5875
20
-112.5625
40
0.5
50
0
51
90
0
ARC
8
0
10
312.5875
20
-125.5625
40
0.5
50
180
51
270
0
ARC
8
0
10
325.5875
20
-125.5625
40
0.5
50
270
51
0
0
LINE
8
0
10
255.4375
20
-88.25
11
268.4375
21
-88.25
0
LINE
8
0
10
255.4375
20
-102.25
11
268.4375
21
-102.25
0
LINE
8
0
10
254.9375
20
-88.75
11
254.9375
21
-101.75
0
LINE
8
0
10
268.9375
20
-88.75
11
268.9375
21
-101.75
0
ARC
8
0
10
255.4375
20
-88.75
40
0.5
50
90
51
180
0
ARC
8
0
10
268.4375
20
-88.75
40
0.5
50
0
51
90
0
ARC
8
0
10
255.4375
20
-101.75
40
0.5
50
180
51
270
0
ARC
8
0
10
268.4375
20
-101.75
40
0.5
50
270
51
0
0
LINE
8
0
10
246.9995
20
-89.25
11
252.9995
21
-89.25
0
LINE
8
0
10
246.9995
20
-104.25
11
252.9995
21
-104.25
0
LINE
8
0
10
246.4995
20
-89.75
11
246.4995
21
-103.75
0
LINE
8
0
10
253.4995
20
-89.75
11
253.4995
21
-103.75
0
ARC
8
0
10
246.9995
20
-89.75
40
0.5
50
90
51
180
0
ARC
8
0
10
252.9995
20
-89.75
40
0.5
50
0
51
90
0
ARC
8
0
10
246.9995
20
-103.75
40
0.5
50
180
51
270
0
ARC
8
0
10
252.9995
20
-103.75
40
0.5
50
270
51
0
0
LINE
8
0
10
270.8755
20
-89.25
11
276.8755
21
-89.25
0
LINE
8
0
10
270.8755
20
-104.25
11
276.8755
21
-104.25
0
LINE
8
0
10
270.3755
20
-89.75
11
270.3755
21
-103.75
0
LINE
8
0
10
277.3755
20
-89.75
11
277.3755
21
-103.75
0
ARC
8
0
10
270.8755
20
-89.75
40
0.5
50
90
51
180
0
ARC
8
0
10
276.8755
20
-89.75
40
0.5
50
0
51
90
0
ARC
8
0
10
270.8755
20
-103.75
40
0.5
50
180
51
270
0
ARC
8
0
10
276.8755
20
-103.75
40
0.5
50
270
51
0
0
LINE
8
0
10
264.9625
20
-88.25
11
277.9625
21
-88.25
0
LINE
8
0
10
264.9625
20
-102.25
11
277.9625
21
-102.25
0
LINE
8
0
10
264.4625
20
-88.75
11
264.4625
21
-101.75
0
LINE
8
0
10
278.4625
20
-88.75
11
278.4625
21
-101.75
0
ARC
8
0
10
264.9625
20
-88.75
40
0.5
50
90
51
180
0
ARC
8
0
10
277.9625
20
-88.75
40
0.5
50
0
51
90
0
ARC
8
0
10
264.9625
20
-101.75
40
0.5
50
180
51
270
0
ARC
8
0
10
277.9625
20
-101.75
40
0.5
50
270
51
0
0
LINE
8
0
10
50.65
20
-88.25
11
63.65
21
-88.25
0
LINE
8
0
10
50.65
20
-102.25
11
63.65
21
-102.25
0
LINE
8
0
10
50.15
20
-88.75
11
50.15
21
-101.75
0
LINE
8
0
10
64.15
20
-88.75
11
64.15
21
-101.75
0
ARC
8
0
10
50.65
20
-88.75
40
0.5
50
90
51
180
0
ARC
8
0
10
63.65
20
-88.75
40
0.5
50
0
51
90
0
ARC
8
0
10
50.65
20
-101.75
40
0.5
50
180
51
270
0
ARC
8
0
10
63.65
20
-101.75
40
0.5
50
270
51
0
0
LINE
8
0
10
0
20
-128.5875
11
333.375
21
-128.5875
0
LINE
8
0
10
0
20
0
11
333.375
21
0
0
LINE
8
0
10
0
20
-128.5875
11
0
21
0
0
LINE
8
0
10
333.375
20
-128.5875
11
333.375
21
0
0
ENDSEC
0
EOF